# xmcd
#
# Track frame offsets: 
#        150
#        11725
#        23255
#        37135
#        52212
#        61977
#        72707
#        90902
#
# Disc length: 1369 seconds
#
# Revision: 3
# Processed by: cddbd v1.5.1PL0 Copyright (c) Steve Scherf et al.
# Submitted via: ExactAudioCopy v0.95a5
#
DISCID=67055708
DTITLE=Waylon Jennings and Willie Nelson - Waylon and Willie
DYEAR=1900
DGENRE=Country
TTITLE0=Mamas Don't Let Your Babies Grow Up To Be Cowboys
TTITLE1=Pick Up The Tempo
TTITLE2=If You Can Touch Her At All
TTITLE3=It's Not Supposed To Be That Way
TTITLE4=The Wurlitzer Prize (I Don't Want To Get Over You)
TTITLE5=I Can Get Off On You
TTITLE6=A Couple More Years
TTITLE7=Lookin' For A Feeling 
EXTD=
EXTT0=
EXTT1=
EXTT2=
EXTT3=
EXTT4=
EXTT5=
EXTT6=
EXTT7=
PLAYORDER=
